# xmcd
# 
# Track frame offsets:
#     150
#     5838
#     17162
#     35079
#     43142
#     55592
#     66862
#     76603
#     80899
#     92666
#     99380
#     115534
#     124460
#     131592
#     148821
#     223084
#     233547
#     244754
#     254453
#     260247
#     321601
#     333133
# 
# Disc length: 4588
# 
# Revision: 1
# Processed by: cddbd v1.5.2PL0 Copyright (c) Steve Scherf et al.
# Submitted via: fre:ac v1.0.31
# 
DISCID=4311ea16
DTITLE=Christmas - The Complete Christmas On The Ponderosa
DYEAR=2018
DGENRE=Christmas
TTITLE0=The Ken Darby Singers - Hark! The Herald Angels Sing
TTITLE1=Dan Blocker - Deck The Halls
TTITLE2=Pernell Roberts - The New Born King
TTITLE3=Lorne Greene - The First Christmas Trees
TTITLE4=Michael Landon - Oh Fir Tree Dear
TTITLE5=Lorne Greene - Christmas Is A-Comin' (May God Bless You)
TTITLE6=Lorne Greene, Dan Blocker and Michael Landon - O Come, All Ye Faithful
TTITLE7=Lorne Greene, Dan Blocker and Michael Landon - Jingle Bells
TTITLE8=Michael Landon - Santa Got Lost In Texas
TTITLE9=Lorne Greene - Stuck In The Chimney
TTITLE10=Lorne Greene - Why We Light Candles On The Christmas Tree
TTITLE11=Lorne Greene, Dan Blocker and Michael Landon - Merry Christmas Neighbor
TTITLE12=Lorne Greene, Dan Blocker and Michael Landon - Merry Christmas And Goodnight (Silent Night)
TTITLE13=Lorne Greene - 'Twas The Night Before Christmas
TTITLE14=Lorne Greene - The Gift Of The Magi
TTITLE15=Lorne Greene - (There's No Place Like) Home For The Holidays
TTITLE16=Lorne Greene - Jingle Bells
TTITLE17=Lorne Greene - Christmas Is A-Comin' (May God Bless You)
TTITLE18=Lorne Greene - We Wish You A Merry Christmas
TTITLE19=Lorne Greene - The Holy Night (A Christmas Cantata)
TTITLE20=Lorne Greene - Must Be Santa
TTITLE21=Lorne Greene - One Solitary Life
EXTD=
EXTT0=
EXTT1=
EXTT2=
EXTT3=
EXTT4=
EXTT5=
EXTT6=
EXTT7=
EXTT8=
EXTT9=
EXTT10=
EXTT11=
EXTT12=
EXTT13=
EXTT14=
EXTT15=
EXTT16=
EXTT17=
EXTT18=
EXTT19=
EXTT20=
EXTT21=
PLAYORDER=
